####
#
# OBJ File Generated by Meshlab
#
####
# Object object.obj
#
# Vertices: 20
# Faces: 24
#
####
mtllib ./object.obj.mtl

vn -0.5773504 -0.5773504 -0.5773501
v -0.0330000 0.0240000 -0.0130000
vn 0.5773504 -0.5773504 -0.5773501
v 0.0330000 0.0240000 -0.0130000
vn -0.5773504 -0.5773501 0.5773503
v -0.0330000 0.0240000 0.0130000
vn 0.5773504 -0.5773501 0.5773503
v 0.0330000 0.0240000 0.0130000
vn -0.5773504 0.5773501 -0.5773503
v -0.0330000 0.0500000 -0.0130000
vn -0.5773504 0.5773504 0.5773501
v -0.0330000 0.0500000 0.0130000
vn 0.5773504 0.5773501 -0.5773503
v 0.0330000 0.0500000 -0.0130000
vn 0.5773504 0.5773504 0.5773501
v 0.0330000 0.0500000 0.0130000
vn 0.5773504 -0.5773504 -0.5773501
v 0.0130000 -0.0500000 -0.0130000
vn 0.5773504 0.5773501 -0.5773503
v 0.0130000 0.0370000 -0.0130000
vn 1.0000000 -0.0000001 -0.0000002
v 0.0130000 -0.0500000 0.0130000
vn 0.7071071 0.7071065 -0.0000003
v 0.0130000 0.0370000 0.0130000
vn -0.5773504 -0.5773504 -0.5773501
v -0.0130000 -0.0500000 -0.0130000
vn 0.0000000 -0.7071066 0.7071069
v -0.0130000 -0.0500000 0.0130000
vn 0.0000000 -0.7071066 0.7071069
v 0.0130000 -0.0500000 0.0130000
vn -0.5773504 0.5773501 -0.5773503
v -0.0130000 0.0370000 -0.0130000
vn -0.7071067 0.7071068 -0.0000000
v -0.0130000 0.0370000 0.0130000
vn -1.0000000 0.0000001 0.0000002
v -0.0130000 -0.0500000 0.0130000
vn 0.0000002 0.0000002 1.0000000
v -0.0130000 0.0370000 0.0130000
vn 0.0000002 0.0000002 1.0000000
v 0.0130000 0.0370000 0.0130000
# 20 vertices, 0 vertices normals


usemtl material_0
vt 0.1699350 1.0000000
vt 0.1699350 0.5686270
vt 0.3398690 1.0000000
f 1/1/1 2/2/2 3/3/3
vt 0.3398690 0.5686270
f 3/3/3 2/2/2 4/4/4
vt 0.3398690 0.7385620
vt 0.5098040 0.7385620
f 5/5/5 1/4/1 6/6/6
vt 0.5098040 0.5686270
f 6/6/6 1/4/1 3/7/3
vt 0.6797390 0.4313730
vt 0.6797390 0.0000000
vt 0.8496730 0.4313730
f 7/8/7 5/9/5 8/10/8
vt 0.8496730 0.0000000
f 8/10/8 5/9/5 6/11/6
vt 0.6797390 0.7385620
f 2/6/2 7/7/7 4/12/4
vt 0.6797390 0.5686270
f 4/12/4 7/7/7 8/13/8
vt 0.0000000 0.5686270
f 5/2/5 7/1/7 1/14/1
vt -0.0000000 1.0000000
f 1/14/1 7/1/7 2/15/2
vt 0.8496730 0.8627450
f 8/10/8 6/16/6 4/8/4
vt 0.6797390 0.8627450
f 4/8/4 6/16/6 3/17/3
vt 0.0000000 0.0000000
f 9/14/9 10/18/10 11/2/11
vt 0.1699350 0.0000000
f 11/2/11 10/18/10 12/19/12
vt 0.3398690 0.9084970
vt 0.5098040 0.9084970
f 13/20/13 9/5/9 14/21/14
f 14/21/14 9/5/9 15/6/15
f 16/2/16 13/19/13 17/4/17
vt 0.3398690 -0.0000000
f 17/4/17 13/19/13 18/22/18
f 10/6/10 16/12/16 12/21/12
vt 0.6797390 0.9084970
f 12/21/12 16/12/16 17/23/17
vt 0.5098040 0.0000000
f 13/24/13 16/7/16 9/22/9
f 9/22/9 16/7/16 10/4/10
f 19/7/19 14/24/14 20/13/20
f 20/13/20 14/24/14 15/9/15
# 24 faces, 24 coords texture

# End of File
